<svg xmlns="http://www.w3.org/2000/svg" xmlns:xlink="http://www.w3.org/1999/xlink" width="6in" height="4in" viewBox="0 0 432 288"><defs><style>.cls-1{isolation:isolate;}.cls-2{fill:#b5b5b5;}.cls-2,.cls-3,.cls-4{mix-blend-mode:overlay;}.cls-3{fill:#c4c4c4;}.cls-4{fill:#696969;}.cls-5{mix-blend-mode:hard-light;fill:url(#radial-gradient);}</style><radialGradient id="radial-gradient" cx="202.17" cy="-11.38" r="351.56" gradientUnits="userSpaceOnUse"><stop offset="0.11" stop-color="#003a3c"/><stop offset="0.17" stop-color="#013436"/><stop offset="0.45" stop-color="#062222"/><stop offset="0.72" stop-color="#081716"/><stop offset="1" stop-color="#091312"/></radialGradient></defs><g class="cls-1"><g id="Layer_1" data-name="Layer 1"><polygon class="cls-2" points="57 103.3 57 39.5 1.7 7.5 0 8.5 0 134.3 1.7 135.3 57 103.3"/><polygon class="cls-2" points="92.1 33.9 92.1 81.4 133.2 105.1 174.3 81.4 174.3 33.9 133.2 10.1 92.1 33.9"/><polygon class="cls-2" points="377.1 41.4 410.9 22 410.9 0 343.4 0 343.4 22 377.1 41.4"/><polygon class="cls-2" points="66 58.7 66 84.7 88.6 97.7 111.1 84.7 111.1 58.7 88.6 45.7 66 58.7"/><polygon class="cls-2" points="228.2 47.3 228.2 104.1 277.4 132.5 326.5 104.1 326.5 47.3 277.4 18.9 228.2 47.3"/><polygon class="cls-2" points="242.1 14 242.1 37 262.1 48.5 282 37 282 14 262.1 2.5 242.1 14"/><polygon class="cls-2" points="120.5 91.7 120.5 113.5 139.4 124.4 158.3 113.5 158.3 91.7 139.4 80.7 120.5 91.7"/><polygon class="cls-2" points="17.9 89.5 17.9 114.4 39.5 126.9 61.1 114.4 61.1 89.5 39.5 77 17.9 89.5"/><polygon class="cls-2" points="4.1 74.2 51.2 101.3 98.2 74.2 98.2 19.8 63.9 0 38.5 0 4.1 19.8 4.1 74.2"/><polygon class="cls-2" points="90.9 78.6 142.2 48.9 142.2 0 39.5 0 39.5 48.9 90.9 78.6"/><polygon class="cls-2" points="316.7 89.8 316.7 141.6 361.6 167.6 406.5 141.6 406.5 89.8 361.6 63.9 316.7 89.8"/><polygon class="cls-2" points="283.5 102.5 283.5 120.8 299.4 130 315.3 120.8 315.3 102.5 299.4 93.3 283.5 102.5"/><polygon class="cls-2" points="54 32.1 54 0 0 0 0 35.5 24 49.4 54 32.1"/><polygon class="cls-3" points="227.8 50.9 269.6 26.7 269.6 0 185.9 0 185.9 26.7 227.8 50.9"/><polygon class="cls-3" points="229.4 101.8 229.4 116.1 241.8 123.3 254.3 116.1 254.3 101.8 241.8 94.6 229.4 101.8"/><polygon class="cls-3" points="378.8 36.1 378.8 53.1 393.6 61.6 408.3 53.1 408.3 36.1 393.6 27.6 378.8 36.1"/><polygon class="cls-3" points="118.6 27.1 143.3 12.9 143.3 0 94 0 94 12.9 118.6 27.1"/><polygon class="cls-3" points="173.5 99.5 173.5 114.7 186.6 122.3 199.8 114.7 199.8 99.5 186.6 91.9 173.5 99.5"/><polygon class="cls-3" points="391.6 87.4 391.6 108.8 410.1 119.5 428.7 108.8 428.7 87.4 410.1 76.7 391.6 87.4"/><polygon class="cls-3" points="149.4 17.6 162 24.9 174.6 17.6 174.6 3.1 169.3 0 154.7 0 149.4 3.1 149.4 17.6"/><polygon class="cls-4" points="300.1 18.4 300.1 38.3 317.3 48.2 334.4 38.3 334.4 18.4 317.3 8.5 300.1 18.4"/><polygon class="cls-4" points="300.6 60.6 300.6 107.2 340.9 130.4 381.2 107.2 381.2 60.6 340.9 37.4 300.6 60.6"/><polygon class="cls-4" points="151.8 28.6 151.8 65 183.3 83.2 214.8 65 214.8 28.6 183.3 10.4 151.8 28.6"/><polygon class="cls-4" points="201.1 53.7 201.1 76.7 221.1 88.3 241.1 76.7 241.1 53.7 221.1 42.1 201.1 53.7"/><polygon class="cls-4" points="75.3 102.6 75.3 119.9 90.2 128.5 105.1 119.9 105.1 102.6 90.2 94 75.3 102.6"/><polygon class="cls-4" points="7.4 22.1 0 17.8 0 68.3 7.4 64.1 7.4 22.1"/><polygon class="cls-2" points="390.3 74.8 390.3 143.5 432 167.5 432 50.7 390.3 74.8"/><polygon class="cls-2" points="230.1 91.3 230.1 160.4 289.9 194.9 349.7 160.4 349.7 91.3 289.9 56.8 230.1 91.3"/><polygon class="cls-2" points="44.2 163.7 0 138.1 0 247.5 44.2 222 44.2 163.7"/><polygon class="cls-2" points="316 92.5 316 125 344.2 141.3 372.4 125 372.4 92.5 344.2 76.2 316 92.5"/><polygon class="cls-2" points="50 66.4 50 141.3 114.8 178.7 179.7 141.3 179.7 66.4 114.8 29 50 66.4"/><polygon class="cls-2" points="101.7 146.6 101.7 183.2 133.4 201.6 165.2 183.2 165.2 146.6 133.4 128.2 101.7 146.6"/><polygon class="cls-2" points="263.6 60.4 263.6 82.1 282.4 93 301.2 82.1 301.2 60.4 282.4 49.5 263.6 60.4"/><polygon class="cls-2" points="377.5 56.8 377.5 87.2 403.7 102.3 430 87.2 430 56.8 403.7 41.7 377.5 56.8"/><polygon class="cls-2" points="389.6 58.3 319.9 98.6 319.9 179 389.6 219.2 432 194.7 432 82.8 389.6 58.3"/><polygon class="cls-2" points="287 141 287 203.8 341.4 235.2 395.7 203.8 395.7 141 341.4 109.7 287 141"/><polygon class="cls-2" points="57.6 81.3 57.6 29.3 12.5 3.3 0 10.5 0 100.1 12.5 107.3 57.6 81.3"/><polygon class="cls-2" points="72 50.9 72 69.6 88.1 78.9 104.2 69.6 104.2 50.9 88.1 41.6 72 50.9"/><polygon class="cls-2" points="422.6 129.7 380.8 153.8 380.8 202.1 422.6 226.3 432 220.8 432 135.1 422.6 129.7"/><polygon class="cls-3" points="169.4 155.4 169.4 192.7 201.7 211.4 234.1 192.7 234.1 155.4 201.7 136.7 169.4 155.4"/><polygon class="cls-3" points="139.6 52.9 139.6 74.1 158 84.7 176.4 74.1 176.4 52.9 158 42.3 139.6 52.9"/><polygon class="cls-3" points="280.6 181.9 280.6 213.1 307.6 228.7 334.6 213.1 334.6 181.9 307.6 166.4 280.6 181.9"/><polygon class="cls-3" points="209.3 56.6 209.3 74.8 225 83.9 240.8 74.8 240.8 56.6 225 47.5 209.3 56.6"/><polygon class="cls-3" points="236.5 172.7 236.5 193.9 254.9 204.5 273.3 193.9 273.3 172.7 254.9 162 236.5 172.7"/><polygon class="cls-4" points="48 150.8 48 172 66.4 182.6 84.8 172 84.8 150.8 66.4 140.2 48 150.8"/><polygon class="cls-4" points="83.8 120.6 83.8 67.3 37.6 40.6 0 62.3 0 125.6 37.6 147.3 83.8 120.6"/><polygon class="cls-4" points="198.3 121.2 198.3 156.8 229.1 174.6 259.9 156.8 259.9 121.2 229.1 103.4 198.3 121.2"/><polygon class="cls-4" points="159.2 102.8 159.2 130.5 183.2 144.4 207.2 130.5 207.2 102.8 183.2 88.9 159.2 102.8"/><polygon class="cls-4" points="324.6 50.6 324.6 70.9 342.2 81 359.8 70.9 359.8 50.6 342.2 40.4 324.6 50.6"/><rect class="cls-5" width="432" height="288"/></g></g></svg>